<?xml version="1.0" encoding="utf-8"?>
<!-- Generator: Adobe Illustrator 16.0.0, SVG Export Plug-In . SVG Version: 6.00 Build 0)  -->
<!DOCTYPE svg PUBLIC "-//W3C//DTD SVG 1.1//EN" "http://www.w3.org/Graphics/SVG/1.1/DTD/svg11.dtd">
<svg version="1.1" id="Layer_2" xmlns="http://www.w3.org/2000/svg" xmlns:xlink="http://www.w3.org/1999/xlink" x="0px" y="0px"
	 width="864px" height="864px" viewBox="0 0 864 864" enable-background="new 0 0 864 864" xml:space="preserve">
<g>
	<path fill-rule="evenodd" clip-rule="evenodd" d="M835.38,570.095c-8.188-2.375-13.729-7.894-18.066-14.969
		c-19.661-32.069-35.206-66.072-47.229-101.661c-1.463-4.334-1.52-9.811-0.348-14.262c9.605-36.49,10.149-73.67,9.185-110.993
		c-0.057-2.192-0.491-4.496-1.303-6.527c-8.035-20.14-18.478-38.719-36.088-52.16c-4.357-3.326-9.44-6-14.581-7.933
		c-7.701-2.896-15.042-2.455-21.638,3.828c-6.396,6.093-13.525,11.416-20.395,17.128c-9.631,8.864-19.896,32.739-20.084,32.965
		c-13.933,16.563-4.359,37.53,0.289,54.332c4.841,17.501,12.766,34.171,19.665,51.072c4.435,10.863-2.8,22.781-14.251,22.785
		c-11.845,0.003-12.4,0.183-15.971-10.792c-3.832-11.776-6.174-24.029-9.735-35.904c-3.001-10.004-6.399-19.935-10.362-29.594
		c-7.779-18.964-15.88-37.804-24.318-56.483c-1.699-3.764-4.893-7.622-8.424-9.639c-8.559-4.89-13.802-11.725-16.013-21.159
		c-0.405-1.73-1.337-3.385-1.487-5.121c-2.055-23.627-18.449-34.356-38.336-42.308c10.088-8.602,19.921-16.987,30.299-25.835
		c-13.063-7.537-25.934-6.775-39.306-1.285c11.311-12.425,21.821-23.97,32.331-35.516c-0.611-0.664-1.224-1.328-1.835-1.991
		c-7.965,6.139-16.19,11.972-23.815,18.507c-6.825,5.848-14.256,7.598-24.892,5.596c16.434-8.241,30.046-17.458,36.79-34.467
		c-1.97,0.68-3.604,1.243-4.729,1.632c2.484-6.027,4.947-12.107,7.519-18.14c0.418-0.978,1.238-1.83,2.006-2.607
		c12.949-13.124,15.115-17.75,17.249-38.03c-2.016,2.93-3.216,5.038-4.759,6.854c-5.3,6.243-10.974,12.185-15.993,18.64
		c-2.812,3.615-5.623,7.767-6.693,12.106c-4,16.229-14.189,29.171-22.137,43.277c-3.484,6.187-19.916,8.938-27.163,5.698
		c29.516-19.996,37.304-51.474,42.632-84.102c-1.438,4.927-3.703,9.779-4.154,14.795c-1.289,14.348-8.747,25.081-18.91,34.29
		c-5.111,4.63-10.898,8.505-16.249,12.882c-9.563,7.821-20.412,10.067-33.623,7.557c9.41-4.933,17.933-9.509,26.562-13.871
		c3.587-1.813,4.566-3.905,1.777-7.381c-7.998,4.222-15.95,8.419-24.535,12.951c6.011-36.127,26.545-63.731,46.691-91.53
		c-0.625-0.5-1.25-1-1.874-1.501c-2.898,3.007-6.248,5.697-8.617,9.075c-11.14,15.891-21.586,32.285-33.136,47.865
		c-6.879,9.278-15.543,15.739-28.265,17.811c-9.791,1.595-18.885,8.133-27.994,13.021c-6.752,3.623-12.646,9.049-19.635,11.97
		c-6.665,2.785-9.855,0.312-13.084-7.572c-2.096,5.912-3.788,11.214-5.841,16.372c-5.063,12.718-9.759,15.681-22.543,11.928
		c-18.405-5.402-28.83,3.499-34.033,16.96c-2.568,6.642-5.008,13.548-8.9,19.408c-4.976,7.493-11.32,14.084-17.145,21.005
		c-7.371,8.758-14.812,17.457-21.851,25.744c-1.049-7.346-0.994-15.158,6.41-21.652c6.858-6.017,13.094-12.779,19.29-19.503
		c3.289-3.568,6.589-7.418,8.708-11.72c6.063-12.319,4.171-18.636-7.669-27.23c-14.928,18.392-28.156,37.372-33.56,61.297
		c-7.049,31.217-15.469,62.125-23.295,93.15c-9.215-3.144-10.096-5.399-16.307-42.734c-12.91,28.609-11.817,56.744-2.721,85.201
		c7.054-2.278,14.036-0.871,19.17,3.028c9.344,7.096,18.011,15.227,26.206,23.659c11.112,11.433,11.787,26.577,12.513,41.309
		c1.285,26.065,2.24,52.151,3.029,78.237c0.208,6.882-0.606,13.804-1.115,20.695c-0.563,7.642,4.458,13.9,12.167,14.113
		c10.427,0.287,20.869,0.134,31.301-0.023c1.208-0.019,2.771-0.977,3.539-1.98c11.257-14.723,30.637-21.468,48.303-16.505
		c1.789,0.502,3.634,1.731,4.86,3.141c3.938,4.522,7.351,5.081,11.276,0.582c3.167-3.629,5.499-7.986,9.685-11.777
		c-0.923,3.467-0.834,7.832-2.963,10.228c-5.867,6.605-12.291,12.873-19.294,18.227c-2.394,1.829-7.166,0.676-10.849,0.636
		c-1.925-0.02-3.965-1.163-5.746-0.796c-10.677,2.198-12.588,6.067-8.265,16.101c1.147,2.662,2.431,5.265,3.585,7.922
		c2.346,5.406,0.64,8.29-5.331,8.975c-1.324,0.151-2.678,0.04-4.017,0.077c-11.994,0.333-15.797,3.19-19.848,14.964
		c7.411,4.082,14.815,8.16,22.464,12.374c1.638-15.436,4.322-16.358,19.948-19.638c16.135-3.389,30.711,1.348,45.866,4.163
		c10.18,1.892,20.419,4.382,31.569,1.828c-0.788-2.352-1.358-4.056-1.938-5.782c12.632-3.041,32.719,10.91,31.07,20.957
		c-26.965-9.993-53.103-6.103-78.482,5.375c-7.178,3.247-15.984,6.459-15.242,17.553c-0.728-2.554-1.457-5.108-2.178-7.638
		c-8.207,1.54-17.31,11.924-22.31,26.057c8.276-3.966,14.059,0.05,19.84,4.479c1.455,1.115,3.733,2.267,5.316,1.927
		c11.466-2.465,23.532-3.49,32.498-12.58c1.629-1.649,3.9-2.667,5.507-3.733c4.93,9.427,9.537,18.233,14.442,27.611
		c-1.764,0.299-3.887,1.082-5.944,0.938c-17.091-1.21-32.106,17.616-32.903,33.553c-0.591,11.824,1.895,23.027,6.811,33.747
		c3.794,8.272,10.667,12.486,19.261,13.648c2.718,0.368,6.64-0.713,8.327-2.62c1.275-1.443,0.192-5.329-0.435-7.987
		c-0.532-2.257-1.912-4.316-1.853-7.334c4.629,4.304,8.962,9.003,13.999,12.758c2.95,2.2,7.1,4.207,10.575,4.005
		c8.608-0.502,16.244,1.514,23.822,5.254c2.58,1.273,6.035,1.72,8.903,1.293c12.307-1.829,24.541-4.145,36.809-6.238
		c5.106-0.872,8.732-3.186,12.78-7.001c6.438-6.07,14.933-10.229,23.048-14.192c12.17-5.943,24.804-10.932,37.153-16.52
		c3.225-1.459,6.672-3.098,9.084-5.565c13.522-13.831,26.901-27.808,40.045-41.998c9.79-10.572,19.151-21.545,28.704-32.338
		c0.728,0.526,1.456,1.054,2.185,1.581c-2.008,3.909-3.934,7.865-6.045,11.717c-2.146,3.911-4.412,7.757-6.733,11.565
		c-9.688,15.897-19.379,31.793-29.18,47.621c-1.475,2.383-3.806,4.241-5.247,6.639c-0.865,1.439-1.624,3.936-0.954,5.129
		c2.53,4.508,1.534,8.488-1.695,11.605c-6.837,6.603-14.559,12.339-21.006,19.279c-3.692,3.976-7.237,9.381-7.979,14.556
		c-1.844,12.84,1.34,22.368,13.32,25.622c3.708,1.007,6.671,4.753,10.605,7.72c-6.54,5.433-12.275,10.195-18.01,14.959
		c-1.786,0-3.573,0-5.36,0c-5.497-0.581-10.985-1.509-16.493-1.646c-5.701-0.143-9.831-2.261-14.009-6.264
		c-9.974-9.551-20.609-18.413-31.019-27.508c-3.394-2.966-6.962-3.664-11.688-2.537c-19.71,4.702-39.5,9.113-59.371,13.072
		c-10.91,2.174-22.439,4.637-32.818-0.95c-8.911-4.798-17.231-10.95-25.106-17.37c-23.341-19.03-38.702-46.094-63.581-63.663
		c-1.767-1.247-3.101-3.229-4.355-5.061c-10.813-15.794-21.74-31.513-32.285-47.484c-14.627-22.154-28.79-44.615-43.46-66.74
		c-10.86-16.376-18.34-34.04-22.654-53.188c-1.845-8.188-3.6-16.626-7.084-24.171c-7.224-15.645-19.937-26.317-35.541-32.988
		c-13.521-5.78-20.868-15.789-22.807-29.759c-1.649-11.89-2.249-23.928-3.227-35.907c-2.086-25.542-4.321-51.076-6.066-76.642
		c-0.687-10.053-4.211-18.732-10.65-26.101c-4.852-5.553-10.335-12.387-18.927-14.14c-4.384-2.104-11.047-5.436-23.845-4.724
		c1.986,22.252,11.685,38.358,32.174,47.306c-9.404,0.002-17.012-4.031-23.203-9.744c-6.524-6.02-13.083-6.351-21.108-3.41
		c0.381,17.723,11.482,28.38,25.354,37.252c-0.555,0.656-1.11,1.311-1.665,1.966c-7.96-5.915-15.921-11.83-23.861-17.729
		c-3.937,7.162-4.493,13.343,2.295,21.77c9.862,12.242,21.382,23.163,32.381,34.465c2.836,2.915,6.371,5.151,9.584,7.698
		c-0.517,0.53-1.034,1.059-1.552,1.588c-32.469-8.461-44.789-35.741-56.667-63.433c-0.581,0.271-1.163,0.543-1.744,0.815
		c5.348,15.851,10.695,31.702,16.043,47.553c-0.596,0.234-1.193,0.468-1.789,0.702c-1.732-3.283-3.759-6.446-5.145-9.869
		c-6.021-14.866-12.641-29.558-17.479-44.81c-3.175-10.009-5.317-20.924-4.949-31.328c0.433-12.237,3.047-24.244-4.033-35.486
		c-0.433-0.687-0.312-1.74-0.394-2.628c-1.644-17.837-9.877-31.334-25.407-39.089c1.177-3.372,3.31-6.57,3.127-9.629
		c-0.285-4.777-1.731-9.618-3.465-14.132c-1.224-3.188-3.737-5.879-5.674-8.792c-0.646,0.294-1.291,0.589-1.937,0.883
		c0,2.138-0.059,4.277,0.009,6.413c0.406,12.704,1.716,25.454,1.041,38.099c-0.809,15.135,4.802,27.364,13.69,38.743
		c3.051,3.906,6.124,7.793,9.188,11.689c-15.141-10.541-26.167-24.096-31.873-41.644c-1.213-3.731-2.8-7.34-4.214-11.005
		c0-4.021,0-8.041,0-12.061c1.582-18.562,3.478-37.105,4.593-55.695c0.459-7.644,3.813-12.609,11.637-13.709
		c7.252-1.021,16.546-10.963,17.463-18.203c2.179-17.188,12.181-29.838,24.592-40.846c3.823-3.39,7.523-2.518,9.152,2.778
		c0.978,3.178,1.398,6.529,2.418,9.69c1.901,5.897-1.547,14.425,8.099,16.705c0.666,0.157,0.726,2.395,1.29,3.557
		c1.197,2.469,2.541,4.866,3.967,7.563c8.878-9.635,9.46-11.081,10.451-25.304c2.545,0,5.106,0,7.952,0
		c0.694,5.326,1.35,10.351,2.197,16.843c9.905-2.958,19.327-5.772,29.022-8.669c-2.068-5.3-4.133-10.595-6.713-17.208
		c10.042-5.253,19.583-10.168,29.052-15.219c7.195-3.838,14.299-7.847,21.779-11.964c-8.753-5.716-8.653-5.536-15.973-1.453
		c-12.754,7.113-25.627,14.016-38.498,20.921c-2.344,1.258-5.025,1.899-7.336,3.206c-1.875,1.061-4.383,2.383-4.95,4.128
		c-1.861,5.739-6.13,5.237-10.33,4.558c-8.26-1.338-14.086-6.118-17.795-14.573c-3.349,4.932-6.28,9.249-9.919,14.61
		c-0.29-2.234-0.573-3.248-0.527-4.247c0.893-19.646,9.341-35.414,24.618-47.611c4.179-3.336,8.696-6.27,12.705-9.79
		c3.243-2.846,7.002-6.049,0.627-12.082c5.277,0.556,8.509,0.698,11.665,1.266c11.384,2.05,22.66,5.291,34.125,6.187
		c33.565,2.624,66.464,1.915,90.545-27.351c0.418-0.507,0.951-1.021,1.541-1.272c6.051-2.576,12.125-5.098,18.193-7.636
		c0.236,0.601,0.472,1.203,0.708,1.804c-4.663,4.083-9.586,7.911-13.913,12.325c-4.325,4.412-8.051,9.409-11.917,14.004
		c6.723,11.491,6.308,12.157-3.519,21.402c-5.648,5.314-10.42,11.573-15.437,17.533c-0.967,1.148-1.235,2.884-2.155,5.167
		c11.247-5.484,21.392-10.432,31.732-15.474c-1.597-1.427-3.102-2.772-4.947-4.421c7.248-1.422,13.785-2.705,20.322-3.987
		c-0.075-0.401-0.15-0.803-0.226-1.205c-3.8-0.742-7.6-1.483-12.533-2.445c3.907-1.816,6.759-3.143,10.098-4.695
		c-2.99-2.742-5.416-4.967-8.248-7.565c1.468-1.818,2.772-3.434,4.163-5.158c2.322,1.74,4.201,3.15,6.342,4.756
		c3.524-7.416,6.41-14.722,10.4-21.364c2.002-3.332,5.652-6.781,9.221-7.762c3.818-1.049,5.637-2.536,6.862-5.94
		c3.933-10.931,10.77-18.719,22.728-21.29c3.146-0.677,5.999-2.716,8.987-4.13c2.68,0,5.361,0,8.041,0
		c0.715,2.515,1.431,5.03,2.085,7.331c4.615-1.459,9.999-3.827,15.62-4.756c5.663-0.936,11.562-0.545,17.358-0.56
		c20.982-0.052,41.965-0.192,62.943,0.13c3.444,0.052,7.158,1.756,10.222,3.58c7.033,4.186,13.239,10.326,20.736,13.007
		c6.725,2.405,13.04,3.934,16.731,10.791c-0.21-2.511-0.419-5.023-0.56-6.702c19.479-9.464,39.625-9.932,60.022-8.812
		c7.833,0.429,10.101,4.011,5.639,10.609c-2.574,3.807-6.167,7-9.616,10.122c-8.61,7.795-13.027,17.326-11.686,23.471
		c13.117-2.417,26.126-6.531,39.228-6.856c24.317-0.604,46.935,7.458,67.753,19.626c6.021,3.52,10.272,10.093,15.286,15.314
		c8.763,9.127,16.596,19.462,26.541,27.029c6.611,5.029,12.439,9.829,15.956,17.23c3.536,7.44,7.118,14.875,10.235,22.493
		c8.095,19.784,15.864,39.699,23.965,59.48c1.406,3.43,3.407,6.791,5.81,9.604c8.765,10.261,15.151,21.266,14.62,35.437
		c-0.224,5.968,0.217,12.107,1.463,17.934c0.838,3.918,2.677,9.008,5.707,10.804c7.959,4.714,12.295,11.889,15.178,19.755
		c10.182,27.771,20.801,55.457,29.207,83.781c7.088,23.878,10.158,48.974,1.274,73.093c-5.925,16.085-6.992,32.112-5.895,48.639
		c1.188,17.893,0.961,36.372,15.903,49.942C835.38,568.308,835.38,569.202,835.38,570.095z"/>
	<path fill-rule="evenodd" clip-rule="evenodd" d="M447.806,385.492c-1.274,3.069-1.375,4.169-1.965,4.599
		c-6.027,4.407-10.856,8.934-6.376,17.489c0.569,1.086-2.685,5.297-4.99,6.568c-8.768,4.832-18.209,8.494-26.764,13.647
		c-9.78,5.892-19.049,1.557-28.409-0.097c-3.955-0.699-4.893-9.635-1.894-15.858c-5.887,0-11.539,0.107-17.181-0.055
		c-2.151-0.062-4.993,0.001-6.31-1.259c-8.335-7.973-19.428-7.118-29.365-8.691c-8.979-1.421-18.471,0.581-27.74,0.637
		c-1.603,0.009-3.218-2.16-5.667-3.93c9.711-3.1,10.89-8.729,5.179-15.85c-3.07-3.828-5.746-7.971-7.974-11.095
		c3.721-2.695,8.146-6.185,12.858-9.229c4.139-2.674,8.353-5.705,12.978-7.044c7.085-2.051,11.613-7.388,17.291-11.233
		c1.488-1.007,3.507-2.706,4.765-2.334c7.118,2.101,11.892-1.508,16.521-5.912c0.48-0.456,1.057-1.04,1.646-1.116
		c10.675-1.361,17.501-10.548,27.388-13.443c5.44-1.593,10.998-2.792,16.421-4.438c4.046-1.228,7.87-3.288,11.966-4.21
		c2.577-0.581,5.481,0.175,8.222,0.481c1.73,0.194,3.456,1.057,5.139,0.945c10.251-0.676,20.492-1.518,30.731-2.364
		c4.124-0.34,7.528,5.708,6.197,11.565c3.403,0.41,6.786,0.816,12.122,1.459c-3.235,2.853-5.059,4.46-6.883,6.068
		c0.09,0.261,0.179,0.521,0.269,0.783c3.15-1.303,6.301-2.605,9.451-3.907c0.251,0.341,0.502,0.682,0.753,1.023
		c-2.415,2.806-4.83,5.612-8.062,9.368c2.656,0.268,3.927,0.164,5.006,0.571c1.041,0.393,2.245,1.145,2.671,2.065
		c0.233,0.506-0.84,1.867-1.605,2.504c-0.625,0.521-1.656,0.606-2.528,0.769c-8.319,1.557-16.621,3.234-24.976,4.581
		c-6.34,1.022-12.806,1.322-19.105,2.527c-2.875,0.55-5.48,2.509-7.841,5.104c19.447-5.359,38.329-4.717,57.066,1.106
		c-0.004,0.689-0.009,1.379-0.013,2.069c-10.343,0-20.688,0-31.03,0c-0.009,0.752-0.017,1.504-0.024,2.256
		c12.745,1.231,25.49,2.462,38.236,3.694c-10.274,3.422-22.07,2.999-29.932,13.197c-1.031-1.129-1.922-2.105-3.061-3.353
		c-0.856,1.179-1.816,2.502-3.098,4.266c-0.687-1.478-1.188-2.556-1.934-4.157c-2.05,1.654-3.96,3.195-5.869,4.735
		c-0.482-0.451-0.964-0.902-1.446-1.354c2.305-2.244,4.608-4.489,6.913-6.734c-0.409-0.588-0.817-1.175-1.227-1.762
		c-2.298,1.61-5.357,2.736-6.748,4.923c-3.961,6.23-10.114,7.396-16.506,8.688c-3.377,0.683-6.594,2.128-9.93,3.065
		c-2.977,0.837-6.016,1.45-9.679,2.314c-0.173,1.464-0.546,4.641-1.039,8.819c2.169-1.248,3.846-2.098,5.404-3.129
		c5.332-3.531,9.781-8.261,17.651-4.241c3.023,1.543,8.401-1.532,12.708-2.499C439.513,387.342,442.837,386.602,447.806,385.492z"/>
	<path fill-rule="evenodd" clip-rule="evenodd" d="M712.845,450.929c20.44,15.22,25.517,15.575,42.534,3.762
		c-0.566,6.145-1.001,12.696-1.817,19.199c-0.808,6.424-12.436,13.645-18.529,11.746C720.671,481.16,711.414,466.99,712.845,450.929
		z"/>
	<path fill-rule="evenodd" clip-rule="evenodd" d="M750.057,373.137c-1.526,0.64-3.117,1.307-4.608,1.933
		c-0.525-0.472-0.964-0.693-1.135-1.043c-4.895-10.102-13.702-16.803-23.621-19.372c-12.863-3.332-16.932-10.459-15.804-22.386
		C727.689,338.762,744.263,343.835,750.057,373.137z"/>
	<path fill-rule="evenodd" clip-rule="evenodd" d="M706.947,285.647c0.512,1.134,0.332,0.923,0.38,0.815
		c6.227-13.995,11.436-15.688,24.792-8.078c14.371,8.188,26.391,25.083,29.41,42.303c-2.318-3.937-4.021-6.847-5.742-9.748
		c-7.889-13.302-20.414-20.946-34.154-26.394C717.667,282.973,712.218,285.145,706.947,285.647z"/>
	<path fill-rule="evenodd" clip-rule="evenodd" d="M410.589,517.453c9.903,3.782,18.889,8.195,25.044,18.073
		c6.175,9.911,14.638,18.399,22.136,27.481c1.664,2.017,3.484,3.905,4.722,6.341C439.122,558.254,425.5,537.315,410.589,517.453z"/>
</g>
</svg>
